<?xml version="1.0" encoding="UTF-8"?>
<svg id="Capa_1" xmlns="http://www.w3.org/2000/svg" version="1.1" viewBox="0 0 268.83 61.89">
  <!-- Generator: Adobe Illustrator 30.0.0, SVG Export Plug-In . SVG Version: 2.1.1 Build 123)  -->
  <defs>
    <style>
      .st0 {
        fill: #bc0012;
      }
    </style>
  </defs>
  <path class="st0" d="M0,4.56h14.27l10.86,26.93,10.93-26.93h14.08v44.35h-11.05v-25.13l-10.28,25.13h-7.46l-10.28-25.13v25.13H0V4.56Z"/>
  <path class="st0" d="M53.94,32.52c0-9.77,6.75-17.16,15.68-17.16,3.6,0,6.68,1.29,9.13,3.41v-2.64h10.41v20.25c0,1.61.84,2.44,2.44,2.44h5.54v10.09h-7.73c-4.56,0-7.65-1.41-9.26-4.18-2.57,3.09-6.17,4.95-10.54,4.95-8.93,0-15.68-7.39-15.68-17.16ZM78.74,32.52c0-4.05-3.02-7.07-7.07-7.07s-7.01,3.02-7.01,7.07,2.96,7.07,7.01,7.07,7.07-3.02,7.07-7.07Z"/>
  <path class="st0" d="M95.91,16.13h10.41v2.83c2.51-2.38,5.72-3.6,9.45-3.6,7.39,0,12.34,4.88,12.34,12.28v8.74c0,1.61.84,2.44,2.44,2.44h1.47v10.09h-3.66c-7.07,0-10.67-3.41-10.67-10.22v-7.58c0-3.41-2.12-5.66-5.4-5.66-3.6,0-5.98,2.31-5.98,5.78v17.67h-10.41V16.13Z"/>
  <path class="st0" d="M133.83,31.62c0-9.25,6.68-16.26,15.62-16.26,3.66,0,6.75,1.22,9.13,3.28v-2.51h10.41v29.24c0,9.96-6.75,16.52-16.9,16.52-8.61,0-15.3-4.63-16.58-12.02h10.73c.9,1.86,3.28,3.08,5.91,3.08,3.98,0,6.43-2.64,6.43-7.07v-1.22c-2.38,2.06-5.46,3.28-9.13,3.28-8.93,0-15.62-7.01-15.62-16.33ZM158.57,31.62c0-3.79-3.02-6.75-7.01-6.75s-7.07,2.96-7.07,6.75,3.02,6.81,7.07,6.81,7.01-2.96,7.01-6.81Z"/>
  <path class="st0" d="M172.09,6.36c0-3.66,2.76-6.36,6.36-6.36s6.36,2.7,6.36,6.36-2.7,6.3-6.36,6.3-6.36-2.7-6.36-6.3ZM173.25,16.13h10.41v32.78h-10.41V16.13Z"/>
  <path class="st0" d="M262.49,38.82c-3.08,0-4.69-1.67-4.69-4.95s1.8-7.39,5.21-12.02v-2.44l-19.73-2.31c-.51-3.02-3.09-5.33-6.81-5.33-3.98,0-6.68,2.57-6.68,6.36,0,2.51,1.16,4.82,3.02,6.23l-2.88,14.46h-5.8c-1.61,0-2.31-.77-2.06-2.44l2.83-20.25h-10.41l-.45,3.02c-2.31-2.38-5.59-3.79-9.83-3.79-8.36,0-15.43,6.23-16.84,15.88-1.54,10.48,4.76,18.45,14.53,18.45,3.92,0,7.39-1.74,10.09-4.63,1.35,2.57,4.18,3.86,8.55,3.86h17.61l4.18-21.98,6.23.84c-1.03,2.51-1.48,4.95-1.48,7.39,0,8.61,4.88,13.75,14.53,13.75h3.53v-10.09h-2.63ZM212.1,33.04c-.58,3.73-3.73,6.56-7.39,6.56-4.43,0-7.26-3.28-6.62-7.65.51-3.73,3.66-6.49,7.39-6.49,4.43,0,7.2,3.21,6.62,7.58Z"/>
  <g>
    <path class="st0" d="M262.69,13.42h-1.05v-.85h3.06v.85h-1.05v2.64h-.97v-2.64Z"/>
    <path class="st0" d="M265.12,12.57h1.02l.83,1.35.83-1.35h1.02v3.49h-.96v-2l-.89,1.36h-.02l-.89-1.35v1.99h-.95v-3.49Z"/>
  </g>
</svg>